<svg width="58" height="58" viewBox="0 0 58 58" fill="none" xmlns="http://www.w3.org/2000/svg">
<g id="electric vehicle charging station">
<path id="Vector" d="M43 50H3C2.20435 50 1.44129 50.3161 0.87868 50.8787C0.316071 51.4413 0 52.2044 0 53V55C0 55.7956 0.316071 56.5587 0.87868 57.1213C1.44129 57.6839 2.20435 58 3 58H43C43.7956 58 44.5587 57.6839 45.1213 57.1213C45.6839 56.5587 46 55.7956 46 55V53C46 52.2044 45.6839 51.4413 45.1213 50.8787C44.5587 50.3161 43.7956 50 43 50ZM44 55C44 55.2652 43.8946 55.5196 43.7071 55.7071C43.5196 55.8946 43.2652 56 43 56H3C2.73478 56 2.48043 55.8946 2.29289 55.7071C2.10536 55.5196 2 55.2652 2 55V53C2 52.7348 2.10536 52.4804 2.29289 52.2929C2.48043 52.1054 2.73478 52 3 52H43C43.2652 52 43.5196 52.1054 43.7071 52.2929C43.8946 52.4804 44 52.7348 44 53V55Z" fill="#C6DE41"/>
<path id="Vector_2" d="M41.001 15.9999H5.00098C4.73576 15.9999 4.48141 16.1052 4.29387 16.2928C4.10633 16.4803 4.00098 16.7347 4.00098 16.9999V50.9999C4.00098 51.2651 4.10633 51.5194 4.29387 51.707C4.48141 51.8945 4.73576 51.9999 5.00098 51.9999H41.001C41.2662 51.9999 41.5205 51.8945 41.7081 51.707C41.8956 51.5194 42.001 51.2651 42.001 50.9999V16.9999C42.001 16.7347 41.8956 16.4803 41.7081 16.2928C41.5205 16.1052 41.2662 15.9999 41.001 15.9999ZM6.00098 49.9999V17.9999H40.001V49.9999H6.00098Z" fill="#C6DE41"/>
<path id="Vector_3" d="M39.001 0H7.00098C6.20533 0 5.44227 0.316071 4.87966 0.87868C4.31705 1.44129 4.00098 2.20435 4.00098 3V17C4.00098 17.2652 4.10633 17.5196 4.29387 17.7071C4.48141 17.8946 4.73576 18 5.00098 18H41.001C41.2662 18 41.5205 17.8946 41.7081 17.7071C41.8956 17.5196 42.001 17.2652 42.001 17V3C42.001 2.20435 41.6849 1.44129 41.1223 0.87868C40.5597 0.316071 39.7966 0 39.001 0ZM6.00098 16V3C6.00098 2.73478 6.10633 2.48043 6.29387 2.29289C6.48141 2.10536 6.73576 2 7.00098 2H39.001C39.2662 2 39.5205 2.10536 39.7081 2.29289C39.8956 2.48043 40.001 2.73478 40.001 3V16H6.00098ZM23.001 22C20.6276 22 18.3075 22.7038 16.3341 24.0224C14.3607 25.3409 12.8227 27.2151 11.9144 29.4078C11.0062 31.6005 10.7685 34.0133 11.2316 36.3411C11.6946 38.6689 12.8375 40.8071 14.5157 42.4853C16.1939 44.1635 18.3321 45.3064 20.6599 45.7694C22.9877 46.2324 25.4005 45.9948 27.5932 45.0866C29.7859 44.1783 31.66 42.6402 32.9786 40.6668C34.2972 38.6935 35.001 36.3734 35.001 34C35.001 30.8174 33.7367 27.7652 31.4863 25.5147C29.2358 23.2643 26.1836 22 23.001 22ZM23.001 44C21.0232 44 19.0898 43.4135 17.4453 42.3147C15.8008 41.2159 14.5191 39.6541 13.7622 37.8268C13.0053 35.9996 12.8073 33.9889 13.1931 32.0491C13.579 30.1093 14.5314 28.3275 15.9299 26.9289C17.3284 25.5304 19.1103 24.578 21.0501 24.1921C22.9899 23.8063 25.0005 24.0043 26.8278 24.7612C28.6551 25.5181 30.2169 26.7998 31.3157 28.4443C32.4145 30.0888 33.001 32.0222 33.001 34C33.001 36.6522 31.9474 39.1957 30.072 41.0711C28.1967 42.9464 25.6531 44 23.001 44Z" fill="#C6DE41"/>
<path id="Vector_4" d="M23 24C21.0222 24 19.0888 24.5865 17.4443 25.6853C15.7998 26.7841 14.5181 28.3459 13.7612 30.1732C13.0043 32.0004 12.8063 34.0111 13.1922 35.9509C13.578 37.8907 14.5304 39.6725 15.9289 41.0711C17.3275 42.4696 19.1093 43.422 21.0491 43.8079C22.9889 44.1937 24.9996 43.9957 26.8268 43.2388C28.6541 42.4819 30.2159 41.2002 31.3147 39.5557C32.4135 37.9112 33 35.9778 33 34C33 31.3478 31.9464 28.8043 30.0711 26.9289C28.1957 25.0536 25.6522 24 23 24ZM25 33C25.1885 33.0005 25.373 33.0543 25.5322 33.1552C25.6915 33.256 25.819 33.3998 25.9 33.57C25.9703 33.7324 25.9962 33.9105 25.9751 34.0862C25.954 34.2619 25.8867 34.4288 25.78 34.57L21.78 39.57C21.6921 39.6971 21.5759 39.802 21.4405 39.8766C21.3052 39.9512 21.1544 39.9935 21 40C20.7744 39.9987 20.5559 39.9212 20.38 39.78C20.174 39.615 20.0415 39.3752 20.0115 39.113C19.9816 38.8507 20.0565 38.5872 20.22 38.38L22.92 35H21C20.8115 34.9995 20.627 34.9457 20.4678 34.8448C20.3085 34.744 20.1811 34.6002 20.1 34.43C20.0297 34.2676 20.0038 34.0895 20.0249 33.9138C20.046 33.7381 20.1133 33.5712 20.22 33.43L24.22 28.43C24.2967 28.3147 24.3964 28.2165 24.513 28.1418C24.6296 28.067 24.7604 28.0173 24.8972 27.9958C25.034 27.9742 25.1737 27.9813 25.3076 28.0166C25.4415 28.0519 25.5666 28.1146 25.675 28.2008C25.7834 28.2869 25.8728 28.3947 25.9374 28.5171C26.002 28.6396 26.0404 28.7742 26.0503 28.9123C26.0601 29.0504 26.0412 29.1891 25.9947 29.3195C25.9482 29.45 25.8751 29.5693 25.78 29.67L23.08 33H25Z" fill="#C6DE41"/>
<path id="Vector_5" d="M33.999 4H11.999C11.2034 4 10.4403 4.31607 9.8777 4.87868C9.31509 5.44129 8.99902 6.20435 8.99902 7V11C8.99902 11.7957 9.31509 12.5587 9.8777 13.1213C10.4403 13.6839 11.2034 14 11.999 14H33.999C34.7947 14 35.5577 13.6839 36.1203 13.1213C36.683 12.5587 36.999 11.7957 36.999 11V7C36.999 6.20435 36.683 5.44129 36.1203 4.87868C35.5577 4.31607 34.7947 4 33.999 4ZM34.999 11C34.999 11.2652 34.8937 11.5196 34.7061 11.7071C34.5186 11.8946 34.2642 12 33.999 12H11.999C11.7338 12 11.4795 11.8946 11.2919 11.7071C11.1044 11.5196 10.999 11.2652 10.999 11V7C10.999 6.73478 11.1044 6.48043 11.2919 6.29289C11.4795 6.10536 11.7338 6 11.999 6H33.999C34.2642 6 34.5186 6.10536 34.7061 6.29289C34.8937 6.48043 34.999 6.73478 34.999 7V11Z" fill="#C6DE41"/>
<path id="Vector_6" d="M43.0005 21.11H41.0005C40.7353 21.11 40.4809 21.2153 40.2934 21.4029C40.1058 21.5904 40.0005 21.8448 40.0005 22.11V29.89C40.0005 30.1552 40.1058 30.4096 40.2934 30.5971C40.4809 30.7846 40.7353 30.89 41.0005 30.89H43.0005C43.7961 30.89 44.5592 30.5739 45.1218 30.0113C45.6844 29.4487 46.0005 28.6856 46.0005 27.89V24.11C46.0005 23.3143 45.6844 22.5513 45.1218 21.9887C44.5592 21.4261 43.7961 21.11 43.0005 21.11ZM44.0005 27.89C44.0005 28.1552 43.8951 28.4096 43.7076 28.5971C43.5201 28.7846 43.2657 28.89 43.0005 28.89H42.0005V23.11H43.0005C43.2657 23.11 43.5201 23.2153 43.7076 23.4029C43.8951 23.5904 44.0005 23.8448 44.0005 24.11V27.89Z" fill="#C6DE41"/>
<path id="Vector_7" d="M51.501 39.0001C50.5727 39.0001 49.6825 38.6314 49.0261 37.975C48.3697 37.3186 48.001 36.4284 48.001 35.5001V29.0001C48.001 28.4697 47.7903 27.961 47.4152 27.5859C47.0401 27.2108 46.5314 27.0001 46.001 27.0001H45.001C44.7358 27.0001 44.4814 26.8948 44.2939 26.7072C44.1063 26.5197 44.001 26.2653 44.001 26.0001C44.001 25.7349 44.1063 25.4806 44.2939 25.293C44.4814 25.1055 44.7358 25.0001 45.001 25.0001H46.001C47.0618 25.0001 48.0793 25.4215 48.8294 26.1717C49.5795 26.9218 50.001 27.9393 50.001 29.0001V35.5001C50.001 35.8979 50.159 36.2795 50.4403 36.5608C50.7216 36.8421 51.1032 37.0001 51.501 37.0001C51.8988 37.0001 52.2803 36.8421 52.5616 36.5608C52.8429 36.2795 53.001 35.8979 53.001 35.5001V18.0001C53.001 17.7349 53.1063 17.4806 53.2939 17.293C53.4814 17.1055 53.7358 17.0001 54.001 17.0001C54.2662 17.0001 54.5205 17.1055 54.7081 17.293C54.8956 17.4806 55.001 17.7349 55.001 18.0001V35.5001C55.001 36.4284 54.6322 37.3186 53.9758 37.975C53.3195 38.6314 52.4292 39.0001 51.501 39.0001Z" fill="#C6DE41"/>
<path id="Vector_8" d="M57 11.9999H51C50.7348 11.9999 50.4804 12.1052 50.2929 12.2928C50.1054 12.4803 50 12.7347 50 12.9999V15.9999C50 16.7955 50.3161 17.5586 50.8787 18.1212C51.4413 18.6838 52.2044 18.9999 53 18.9999H55C55.7956 18.9999 56.5587 18.6838 57.1213 18.1212C57.6839 17.5586 58 16.7955 58 15.9999V12.9999C58 12.7347 57.8946 12.4803 57.7071 12.2928C57.5196 12.1052 57.2652 11.9999 57 11.9999ZM56 15.9999C56 16.2651 55.8946 16.5194 55.7071 16.707C55.5196 16.8945 55.2652 16.9999 55 16.9999H53C52.7348 16.9999 52.4804 16.8945 52.2929 16.707C52.1054 16.5194 52 16.2651 52 15.9999V13.9999H56V15.9999Z" fill="#C6DE41"/>
<g id="Vector_9">
<path d="M56.0005 12.9999V8.99988Z" fill="#C6DE41"/>
<path d="M56.0005 12.9999V8.99988" stroke="#C6DE41" stroke-width="2" stroke-linecap="round" stroke-linejoin="round"/>
</g>
<path id="Vector_10" d="M51.999 14C51.7338 14 51.4795 13.8946 51.2919 13.7071C51.1044 13.5196 50.999 13.2652 50.999 13V9C50.999 8.73478 51.1044 8.48043 51.2919 8.29289C51.4795 8.10536 51.7338 8 51.999 8C52.2642 8 52.5186 8.10536 52.7061 8.29289C52.8937 8.48043 52.999 8.73478 52.999 9V13C52.999 13.2652 52.8937 13.5196 52.7061 13.7071C52.5186 13.8946 52.2642 14 51.999 14Z" fill="#C6DE41"/>
</g>
</svg>
