<svg width="33" height="55" viewBox="0 0 33 55" fill="none" xmlns="http://www.w3.org/2000/svg">
<path id="Vector" d="M18.3333 55C15.8079 54.9903 13.3887 53.9818 11.6029 52.1942C9.81716 50.4066 8.80966 47.9849 8.8 45.4568C8.8 40.9422 15.4 28.9398 16.72 26.554C16.8977 26.289 17.1379 26.0719 17.4192 25.9218C17.7006 25.7717 18.0145 25.6932 18.3333 25.6932C18.6522 25.6932 18.9661 25.7717 19.2474 25.9218C19.5288 26.0719 19.7689 26.289 19.9467 26.554C21.2667 28.9398 27.8667 40.9422 27.8667 45.4568C27.857 47.9849 26.8495 50.4066 25.0637 52.1942C23.278 53.9818 20.8588 54.9903 18.3333 55ZM18.3333 31.3256C15.7157 35.7324 13.7402 40.4908 12.4667 45.4568C12.4667 47.0144 13.0848 48.5081 14.185 49.6095C15.2852 50.7108 16.7774 51.3296 18.3333 51.3296C19.8893 51.3296 21.3815 50.7108 22.4817 49.6095C23.5819 48.5081 24.2 47.0144 24.2 45.4568C22.9265 40.4908 20.951 35.7324 18.3333 31.3256ZM7.33333 29.3068C5.38841 29.3068 3.52315 28.5334 2.14789 27.1567C0.772618 25.7801 0 23.9129 0 21.9659C0 18.6258 4.76667 9.92686 5.72 8.20175C5.89774 7.93679 6.13787 7.71968 6.41923 7.56955C6.70058 7.41943 7.01451 7.3409 7.33333 7.3409C7.65216 7.3409 7.96609 7.41943 8.24744 7.56955C8.52879 7.71968 8.76893 7.93679 8.94667 8.20175C9.9 9.92686 14.6667 18.6258 14.6667 21.9659C14.6667 23.9129 13.894 25.7801 12.5188 27.1567C11.1435 28.5334 9.27825 29.3068 7.33333 29.3068ZM7.33333 13.01C5.68921 15.8043 4.45439 18.8204 3.66667 21.9659C3.66667 22.9394 4.05298 23.873 4.74061 24.5613C5.42824 25.2497 6.36087 25.6364 7.33333 25.6364C8.30579 25.6364 9.23842 25.2497 9.92606 24.5613C10.6137 23.873 11 22.9394 11 21.9659C10.2123 18.8204 8.97746 15.8043 7.33333 13.01ZM25.6667 21.9659C23.7217 21.9659 21.8565 21.1925 20.4812 19.8158C19.106 18.4392 18.3333 16.572 18.3333 14.625C18.3333 11.2849 23.1 2.58596 24.0533 0.860847C24.2311 0.595887 24.4712 0.378774 24.7526 0.228649C25.0339 0.0785241 25.3478 0 25.6667 0C25.9855 0 26.2994 0.0785241 26.5808 0.228649C26.8621 0.378774 27.1023 0.595887 27.28 0.860847C28.2333 2.58596 33 11.2849 33 14.625C33 16.572 32.2274 18.4392 30.8521 19.8158C29.4768 21.1925 27.6116 21.9659 25.6667 21.9659ZM25.6667 5.66914C24.0225 8.46338 22.7877 11.4795 22 14.625C22 15.5985 22.3863 16.5321 23.0739 17.2204C23.7616 17.9088 24.6942 18.2955 25.6667 18.2955C26.6391 18.2955 27.5718 17.9088 28.2594 17.2204C28.947 16.5321 29.3333 15.5985 29.3333 14.625C28.5456 11.4795 27.3108 8.46338 25.6667 5.66914Z" fill="#C6DE41"/>
</svg>
