<svg width="72" height="49" viewBox="0 0 72 49" fill="none" xmlns="http://www.w3.org/2000/svg">
<g id="Layer 2">
<g id="5327 - Electric Car Station">
<path id="Vector" d="M65.2417 43.0363H23.771C22.7867 43.0325 21.8332 42.6924 21.0686 42.0726C20.3039 41.4527 19.774 40.5902 19.5667 39.6279L18.1093 32.7348C17.9619 32.0476 17.9861 31.3347 18.1795 30.659C18.373 29.9833 18.7299 29.3656 19.2186 28.8605L22.3747 25.0029C22.4038 24.967 22.4348 24.9328 22.4676 24.9002C22.8668 24.4988 23.3418 24.1807 23.865 23.9646C24.3883 23.7484 24.9493 23.6385 25.5154 23.6412H63.5098C64.0743 23.6395 64.6336 23.7499 65.1552 23.966C65.6767 24.1821 66.1501 24.4997 66.548 24.9002C66.5811 24.9324 66.6121 24.9667 66.6409 25.0029L69.7969 28.8605C70.2856 29.3657 70.6424 29.9834 70.8358 30.659C71.0293 31.3347 71.0535 32.0476 70.9062 32.7348L69.4475 39.6279C69.2405 40.5906 68.7105 41.4536 67.9455 42.0736C67.1805 42.6936 66.2264 43.0333 65.2417 43.0363ZM24.4741 26.8208L21.3277 30.6646C21.2991 30.7004 21.2685 30.7346 21.2362 30.7672C21.0563 30.9465 20.9241 31.1678 20.8514 31.4112C20.7788 31.6546 20.7681 31.9122 20.8202 32.1608L22.279 39.0552C22.3517 39.3967 22.5394 39.703 22.8107 39.9228C23.082 40.1426 23.4205 40.2627 23.7696 40.263H65.2417C65.5911 40.263 65.93 40.1431 66.2016 39.9232C66.4732 39.7034 66.661 39.397 66.7338 39.0552L68.1911 32.1608C68.2433 31.9122 68.2326 31.6546 68.1599 31.4112C68.0873 31.1678 67.955 30.9465 67.7752 30.7672C67.742 30.735 67.711 30.7007 67.6822 30.6646L64.5373 26.8208C64.256 26.559 63.8858 26.4138 63.5015 26.4145H25.5154C25.1292 26.4121 24.7567 26.5575 24.4741 26.8208Z" fill="#C6DE41"/>
<path id="Vector_2" d="M28.9547 48.7201H28.034C26.8843 48.719 25.7821 48.2618 24.9692 47.4489C24.1562 46.636 23.699 45.5337 23.6979 44.3841V41.6496C23.6979 41.2818 23.844 40.9291 24.1041 40.6691C24.3641 40.409 24.7168 40.2629 25.0846 40.2629H31.9042C32.2719 40.2629 32.6246 40.409 32.8847 40.6691C33.1447 40.9291 33.2908 41.2818 33.2908 41.6496V44.3841C33.2894 45.5336 32.832 46.6357 32.0192 47.4485C31.2063 48.2614 30.1043 48.7187 28.9547 48.7201ZM26.4712 43.0348V44.3827C26.4716 44.797 26.6364 45.1943 26.9294 45.4873C27.2224 45.7803 27.6197 45.9451 28.034 45.9454H28.9547C29.369 45.9447 29.7661 45.7798 30.059 45.4869C30.3519 45.194 30.5168 44.7969 30.5175 44.3827V43.0348H26.4712ZM62.1222 48.7201H61.1931C60.0428 48.7198 58.9397 48.2629 58.126 47.45C57.3122 46.637 56.8543 45.5343 56.8529 44.3841V41.6496C56.8529 41.2818 56.999 40.9291 57.259 40.6691C57.5191 40.409 57.8718 40.2629 58.2395 40.2629H65.0591C65.4269 40.2629 65.7796 40.409 66.0396 40.6691C66.2997 40.9291 66.4457 41.2818 66.4457 41.6496V44.3841C66.4447 45.5316 65.9892 46.6319 65.1789 47.4445C64.3687 48.2571 63.2697 48.7157 62.1222 48.7201ZM59.6373 43.0348V44.3827C59.638 44.7969 59.8029 45.194 60.0958 45.4869C60.3887 45.7798 60.7858 45.9447 61.2 45.9454H62.1222C62.5363 45.9447 62.9332 45.7798 63.2259 45.4868C63.5186 45.1939 63.6832 44.7968 63.6835 44.3827V43.0348H59.6373ZM63.9248 26.4144H25.0846C24.8514 26.4144 24.622 26.3555 24.4176 26.2433C24.2131 26.1311 24.0403 25.9692 23.9151 25.7725C23.7898 25.5758 23.7162 25.3506 23.7011 25.1179C23.6859 24.8853 23.7296 24.6525 23.8283 24.4412L27.5334 16.5012C28.284 14.9025 29.4735 13.5501 30.9632 12.6014C32.4529 11.6528 34.1815 11.1471 35.9476 11.1432H53.0645C54.8304 11.1472 56.5588 11.653 58.0483 12.6016C59.5378 13.5502 60.727 14.9026 61.4774 16.5012L65.1839 24.4453C65.2817 24.6567 65.3247 24.8893 65.3089 25.1216C65.2932 25.3539 65.2192 25.5786 65.0937 25.7748C64.9683 25.9709 64.7954 26.1324 64.5911 26.2442C64.3868 26.356 64.1577 26.4145 63.9248 26.4144ZM27.2589 23.6411H61.7505L58.9647 17.6701C58.4388 16.5488 57.6048 15.6001 56.5602 14.9347C55.5155 14.2693 54.3031 13.9148 53.0645 13.9123H35.9476C34.7091 13.9148 33.4967 14.2693 32.452 14.9347C31.4073 15.6001 30.5734 16.5488 30.0474 17.6701L27.2589 23.6411ZM68.5618 38.4908H61.6535C60.3814 38.4908 59.1614 37.9854 58.2619 37.0859C57.3624 36.1864 56.857 34.9664 56.857 33.6943C56.857 32.4222 57.3624 31.2022 58.2619 30.3027C59.1614 29.4032 60.3814 28.8979 61.6535 28.8979H69.1553C69.523 28.8979 69.8757 29.044 70.1358 29.304C70.3958 29.5641 70.5419 29.9168 70.5419 30.2846C70.5419 30.6523 70.3958 31.005 70.1358 31.2651C69.8757 31.5251 69.523 31.6712 69.1553 31.6712H61.6535C61.1169 31.6712 60.6023 31.8844 60.2229 32.2638C59.8435 32.6432 59.6303 33.1578 59.6303 33.6943C59.6303 34.2309 59.8435 34.7455 60.2229 35.1249C60.6023 35.5043 61.1169 35.7175 61.6535 35.7175H68.5618C68.9295 35.7175 69.2822 35.8636 69.5423 36.1236C69.8023 36.3837 69.9484 36.7364 69.9484 37.1041C69.9484 37.4719 69.8023 37.8246 69.5423 38.0846C69.2822 38.3447 68.9295 38.4908 68.5618 38.4908ZM27.3573 38.4908H20.449C20.0812 38.4908 19.7285 38.3447 19.4685 38.0846C19.2084 37.8246 19.0624 37.4719 19.0624 37.1041C19.0624 36.7364 19.2084 36.3837 19.4685 36.1236C19.7285 35.8636 20.0812 35.7175 20.449 35.7175H27.3573C27.8939 35.7175 28.4085 35.5043 28.7879 35.1249C29.1673 34.7455 29.3805 34.2309 29.3805 33.6943C29.3805 33.1578 29.1673 32.6432 28.7879 32.2638C28.4085 31.8844 27.8939 31.6712 27.3573 31.6712H19.8555C19.4878 31.6712 19.1351 31.5251 18.875 31.2651C18.615 31.005 18.4689 30.6523 18.4689 30.2846C18.4689 29.9168 18.615 29.5641 18.875 29.304C19.1351 29.044 19.4878 28.8979 19.8555 28.8979H27.3573C28.6294 28.8979 29.8494 29.4032 30.7489 30.3027C31.6484 31.2022 32.1538 32.4222 32.1538 33.6943C32.1538 34.9664 31.6484 36.1864 30.7489 37.0859C29.8494 37.9854 28.6294 38.4908 27.3573 38.4908ZM51.4241 37.5784H37.5867C37.3112 37.5784 37.0419 37.4964 36.8132 37.3428C36.5845 37.1892 36.4068 36.9709 36.3026 36.7159L34.0299 31.1471C33.9439 30.9365 33.9111 30.708 33.9342 30.4817C33.9574 30.2554 34.0359 30.0383 34.1627 29.8495C34.2896 29.6607 34.461 29.506 34.6617 29.3991C34.8625 29.2921 35.0865 29.2362 35.3139 29.2362H53.6982C53.9257 29.2362 54.1497 29.2921 54.3504 29.3991C54.5512 29.506 54.7226 29.6607 54.8494 29.8495C54.9763 30.0383 55.0548 30.2554 55.0779 30.4817C55.1011 30.708 55.0683 30.9365 54.9823 31.1471L52.7082 36.7159C52.604 36.9709 52.4263 37.1892 52.1976 37.3428C51.9689 37.4964 51.6996 37.5784 51.4241 37.5784ZM38.5185 34.805H50.4923L51.6349 32.0095H37.3773L38.5185 34.805ZM11.1335 48.7201C10.7657 48.7201 10.413 48.574 10.1529 48.314C9.89289 48.0539 9.7468 47.7012 9.7468 47.3335V11.1335C9.7442 9.15725 9.04277 7.24563 7.76658 5.73674C6.4904 4.22785 4.72169 3.21892 2.77331 2.8884V47.3335C2.77331 47.7012 2.62722 48.0539 2.36717 48.314C2.10712 48.574 1.75442 48.7201 1.38666 48.7201C1.01889 48.7201 0.66619 48.574 0.406142 48.314C0.146094 48.0539 0 47.7012 0 47.3335L0 1.38666C0 1.01889 0.146094 0.66619 0.406142 0.406142C0.66619 0.146094 1.01889 0 1.38666 0C4.33842 0.00330319 7.16834 1.17735 9.25555 3.26456C11.3428 5.35177 12.5168 8.18169 12.5201 11.1335V47.3335C12.5201 47.7012 12.374 48.0539 12.114 48.314C11.8539 48.574 11.5012 48.7201 11.1335 48.7201Z" fill="#C6DE41"/>
<path id="Vector_3" d="M18.0945 48.7203H1.38666C1.01889 48.7203 0.66619 48.5742 0.406142 48.3142C0.146094 48.0541 0 47.7014 0 47.3337C0 46.9659 0.146094 46.6132 0.406142 46.3531C0.66619 46.0931 1.01889 45.947 1.38666 45.947H18.0945C18.4622 45.947 18.8149 46.0931 19.075 46.3531C19.335 46.6132 19.4811 46.9659 19.4811 47.3337C19.4811 47.7014 19.335 48.0541 19.075 48.3142C18.8149 48.5742 18.4622 48.7203 18.0945 48.7203ZM26.4477 26.4423H22.9672C21.3076 26.4405 19.7166 25.7804 18.5432 24.607C17.3697 23.4335 16.7096 21.8425 16.7078 20.1829C16.7067 19.2587 16.3391 18.3727 15.6856 17.7192C15.032 17.0656 14.146 16.698 13.2218 16.6969H11.1335C10.7657 16.6969 10.413 16.5508 10.1529 16.2908C9.89289 16.0307 9.7468 15.678 9.7468 15.3102C9.7468 14.9425 9.89289 14.5898 10.1529 14.3297C10.413 14.0697 10.7657 13.9236 11.1335 13.9236H13.2218C14.8813 13.9254 16.4723 14.5855 17.6458 15.7589C18.8192 16.9324 19.4793 18.5234 19.4811 20.1829C19.4819 21.1073 19.8494 21.9935 20.503 22.6471C21.1566 23.3007 22.0428 23.6683 22.9672 23.669H26.4477C26.8154 23.669 27.1681 23.8151 27.4282 24.0751C27.6882 24.3352 27.8343 24.6879 27.8343 25.0557C27.8343 25.4234 27.6882 25.7761 27.4282 26.0362C27.1681 26.2962 26.8154 26.4423 26.4477 26.4423Z" fill="#C6DE41"/>
<path id="Vector_4" d="M11.133 20.8734H6.95501C6.58725 20.8734 6.23455 20.7273 5.9745 20.4673C5.71445 20.2072 5.56836 19.8545 5.56836 19.4868C5.56836 19.119 5.71445 18.7663 5.9745 18.5062C6.23455 18.2462 6.58725 18.1001 6.95501 18.1001H11.133C11.5008 18.1001 11.8535 18.2462 12.1135 18.5062C12.3736 18.7663 12.5197 19.119 12.5197 19.4868C12.5197 19.8545 12.3736 20.2072 12.1135 20.4673C11.8535 20.7273 11.5008 20.8734 11.133 20.8734ZM11.133 26.4422H6.95501C6.58725 26.4422 6.23455 26.2961 5.9745 26.0361C5.71445 25.776 5.56836 25.4233 5.56836 25.0556C5.56836 24.6878 5.71445 24.3351 5.9745 24.075C6.23455 23.815 6.58725 23.6689 6.95501 23.6689H11.133C11.5008 23.6689 11.8535 23.815 12.1135 24.075C12.3736 24.3351 12.5197 24.6878 12.5197 25.0556C12.5197 25.4233 12.3736 25.776 12.1135 26.0361C11.8535 26.2961 11.5008 26.4422 11.133 26.4422ZM11.133 32.0124H6.95501C6.58725 32.0124 6.23455 31.8663 5.9745 31.6063C5.71445 31.3462 5.56836 30.9935 5.56836 30.6258C5.56836 30.258 5.71445 29.9053 5.9745 29.6452C6.23455 29.3852 6.58725 29.2391 6.95501 29.2391H11.133C11.5008 29.2391 11.8535 29.3852 12.1135 29.6452C12.3736 29.9053 12.5197 30.258 12.5197 30.6258C12.5197 30.9935 12.3736 31.3462 12.1135 31.6063C11.8535 31.8663 11.5008 32.0124 11.133 32.0124ZM11.133 37.5784H6.95501C6.58725 37.5784 6.23455 37.4324 5.9745 37.1723C5.71445 36.9123 5.56836 36.5596 5.56836 36.1918C5.56836 35.824 5.71445 35.4713 5.9745 35.2113C6.23455 34.9512 6.58725 34.8051 6.95501 34.8051H11.133C11.5008 34.8051 11.8535 34.9512 12.1135 35.2113C12.3736 35.4713 12.5197 35.824 12.5197 36.1918C12.5197 36.5596 12.3736 36.9123 12.1135 37.1723C11.8535 37.4324 11.5008 37.5784 11.133 37.5784Z" fill="#C6DE41"/>
</g>
</g>
</svg>
