<svg width="38" height="58" viewBox="0 0 38 58" fill="none" xmlns="http://www.w3.org/2000/svg">
<path id="52" d="M16.2825 58H10.8476C10.4462 57.9972 10.0504 57.8995 9.68859 57.714C9.32679 57.5284 9.008 57.2597 8.75513 56.927C8.48948 56.6008 8.29549 56.2154 8.18736 55.799C8.07922 55.3825 8.05966 54.9456 8.13012 54.52L11.8802 34.8H2.69517C2.19617 34.8011 1.70651 34.6556 1.27989 34.3793C0.853275 34.1031 0.506165 33.7068 0.276624 33.234C0.0663669 32.7755 -0.0267663 32.2659 0.00663424 31.7567C0.0400348 31.2475 0.198785 30.7568 0.466846 30.334L19.4891 1.334C19.7296 0.933739 20.0587 0.602721 20.4472 0.370095C20.8358 0.13747 21.272 0.0103737 21.7175 0H27.1524C27.5538 0.00283267 27.9496 0.100523 28.3114 0.28605C28.6732 0.471576 28.992 0.740332 29.2449 1.073C29.5105 1.39916 29.7045 1.78456 29.8126 2.20101C29.9208 2.61746 29.9403 3.05444 29.8699 3.48L26.1198 23.2H35.3048C35.8038 23.1989 36.2935 23.3444 36.7201 23.6207C37.1467 23.8969 37.4938 24.2932 37.7234 24.766C37.9336 25.2245 38.0268 25.7341 37.9934 26.2433C37.96 26.7525 37.8012 27.2432 37.5332 27.666L18.5109 56.666C18.2704 57.0663 17.9413 57.3973 17.5528 57.6299C17.1642 57.8625 16.728 57.9896 16.2825 58ZM14.1629 52.2H14.8694L30.0873 29H22.8045C22.4031 28.9972 22.0073 28.8995 21.6455 28.714C21.2837 28.5284 20.9649 28.2597 20.712 27.927C20.4558 27.5959 20.2718 27.2082 20.1731 26.792C20.0744 26.3757 20.0636 25.9413 20.1413 25.52L23.8371 5.8H23.1306L7.91272 29H15.1955C15.5969 29.0028 15.9927 29.1005 16.3545 29.286C16.7163 29.4716 17.0351 29.7403 17.288 30.073C17.5442 30.4041 17.7282 30.7918 17.8269 31.208C17.9256 31.6243 17.9364 32.0587 17.8587 32.48L14.1629 52.2Z" fill="#C6DE41"/>
</svg>
