<svg width="57" height="48" viewBox="0 0 57 48" fill="none" xmlns="http://www.w3.org/2000/svg">
<path id="Vector" d="M28.5188 0.000491708C32.2435 -0.0164365 35.9351 0.694189 39.3826 2.09176C42.8301 3.48933 45.9659 5.54645 48.6109 8.14557C51.2559 10.7447 53.3581 13.8349 54.7976 17.2395C56.237 20.6442 56.9854 24.2965 57 27.988C57.0088 34.4072 54.7672 40.6302 50.6585 45.5927L48.6003 48L44.8918 44.8944L46.3381 43.2956L46.4864 43.1486C49.8541 39.3113 51.8488 34.4792 52.1604 29.4029H46.3195V24.6986H52.0121C51.4097 20.5095 49.6515 16.5667 46.9314 13.3051L43.464 16.7415L40.1078 13.4154L43.5752 9.97895C39.9489 7.06421 35.5388 5.2687 30.8922 4.81514V11.7615H26.1454V4.81514C21.4979 5.26551 17.087 7.06139 13.4623 9.97895L16.9298 13.4154L13.5736 16.7415L10.1061 13.3051C7.38606 16.5667 5.62787 20.5095 5.02551 24.6986H10.718V29.4029H4.82155C5.08382 34.2095 6.89004 38.807 9.97635 42.5238L12.0716 44.8944L8.53004 48L6.97247 46.1623C2.44368 41.1409 -0.0410642 34.6309 0.000513477 27.8961C0.0544329 20.4504 3.08816 13.3305 8.43534 8.10003C13.7825 2.86961 21.0059 -0.0435276 28.5188 0.000491708ZM37.3079 18.4873L40.6641 21.7951L33.0617 29.3111C33.3248 30.3048 33.2512 31.3567 32.8521 32.3048C32.453 33.253 31.7505 34.0449 30.8528 34.5587C29.9551 35.0724 28.9119 35.2796 27.8837 35.1482C26.8556 35.0169 25.8995 34.5543 25.1626 33.8317C24.7231 33.398 24.3743 32.8825 24.1363 32.3149C23.8983 31.7472 23.7758 31.1386 23.7758 30.5239C23.7758 29.9092 23.8983 29.3006 24.1363 28.7329C24.3743 28.1653 24.7231 27.6498 25.1626 27.2161C25.6959 26.6806 26.3528 26.2819 27.0765 26.0546C27.8002 25.8273 28.5689 25.7781 29.3161 25.9114L29.724 26.0033L37.3079 18.4873Z" fill="#C6DE41"/>
</svg>
