<svg width="56" height="62" viewBox="0 0 56 62" fill="none" xmlns="http://www.w3.org/2000/svg">
<g id="Group 44744">
<path id="Vector" d="M0 31.0002C0.0019504 32.3153 0.327426 33.6098 0.947734 34.7695C1.56804 35.9292 2.46413 36.9185 3.557 37.6502C2.76777 38.8933 2.26316 40.2956 2.07929 41.7566C1.89543 43.2176 2.03685 44.7012 2.49343 46.1012C2.95002 47.5011 3.71048 48.7828 4.72037 49.8545C5.73025 50.9262 6.96459 51.7613 8.335 52.3002C8.80598 53.8991 9.7683 55.3093 11.0855 56.3307C12.4028 57.3522 14.0081 57.9331 15.674 57.9912C16.2392 59.1891 17.1331 60.2018 18.2516 60.9114C19.37 61.621 20.6671 61.9982 21.9916 61.9991C23.3162 62.0001 24.6138 61.6247 25.7333 60.9167C26.8528 60.2087 27.7481 59.1973 28.315 58.0002H33C33.2652 58.0002 33.5196 57.8948 33.7071 57.7073C33.8946 57.5197 34 57.2654 34 57.0002V55.3002C36.7032 54.6621 39.2853 53.5906 41.646 52.1272L42.846 53.3272C43.0335 53.5146 43.2878 53.6199 43.553 53.6199C43.8182 53.6199 44.0725 53.5146 44.26 53.3272L51.331 46.2572C51.5185 46.0696 51.6238 45.8153 51.6238 45.5502C51.6238 45.285 51.5185 45.0307 51.331 44.8432L50.131 43.6432C51.5926 41.2831 52.6628 38.702 53.3 36.0002H55C55.2652 36.0002 55.5196 35.8948 55.7071 35.7073C55.8946 35.5197 56 35.2654 56 35.0002V25.0002C56 24.7349 55.8946 24.4806 55.7071 24.293C55.5196 24.1055 55.2652 24.0002 55 24.0002H53.3C52.6626 21.2969 51.5914 18.7148 50.128 16.3542L51.328 15.1542C51.5155 14.9666 51.6208 14.7123 51.6208 14.4472C51.6208 14.182 51.5155 13.9277 51.328 13.7402L44.263 6.66615C44.0755 6.47868 43.8212 6.37336 43.556 6.37336C43.2908 6.37336 43.0365 6.47868 42.849 6.66615L41.649 7.86615C39.2871 6.4046 36.7039 5.33541 34 4.70015V3.00015C34 2.73493 33.8946 2.48058 33.7071 2.29304C33.5196 2.10551 33.2652 2.00015 33 2.00015H27.46C26.7451 1.19971 25.8283 0.606016 24.8054 0.281119C23.7825 -0.0437772 22.6912 -0.0879426 21.6454 0.15324C20.5996 0.394423 19.6379 0.912097 18.8606 1.65215C18.0833 2.3922 17.5191 3.32746 17.227 4.36015C16.1741 4.00913 15.0528 3.91314 13.9555 4.0801C12.8583 4.24705 11.8163 4.67217 10.9154 5.32048C10.0145 5.96878 9.28045 6.82174 8.7736 7.80916C8.26675 8.79658 8.00161 9.89024 8 11.0002C8 11.0882 8 11.1752 8 11.2612C6.69113 11.5978 5.48903 12.2609 4.50612 13.1885C3.5232 14.116 2.7916 15.2777 2.37972 16.5649C1.96784 17.8521 1.88915 19.2227 2.15101 20.5485C2.41286 21.8744 3.0067 23.1122 3.877 24.1462C2.69648 24.8594 1.71961 25.8647 1.04054 27.0652C0.361473 28.2657 0.00311113 29.6209 0 31.0002ZM29 15.0512C33.0639 15.2963 36.881 17.0835 39.6718 20.0478C42.4627 23.0121 44.0167 26.9298 44.0167 31.0012C44.0167 35.0725 42.4627 38.9902 39.6718 41.9545C36.881 44.9188 33.0639 46.706 29 46.9512V37.0002H30.465L32.165 39.5552C32.2566 39.6925 32.3808 39.805 32.5265 39.8827C32.6722 39.9603 32.8349 40.0007 33 40.0002H34.184C34.4199 40.6674 34.8841 41.2297 35.4945 41.5878C36.1049 41.9459 36.8222 42.0766 37.5197 41.9569C38.2172 41.8373 38.85 41.4749 39.3061 40.9338C39.7622 40.3927 40.0124 39.7078 40.0124 39.0002C40.0124 38.2925 39.7622 37.6076 39.3061 37.0665C38.85 36.5254 38.2172 36.163 37.5197 36.0434C36.8222 35.9237 36.1049 36.0544 35.4945 36.4125C34.8841 36.7706 34.4199 37.3329 34.184 38.0002H33.535L31.835 35.4452C31.7434 35.3078 31.6192 35.1953 31.4735 35.1176C31.3278 35.04 31.1651 34.9996 31 35.0002H29V32.0002H36.184C36.4199 32.6674 36.8841 33.2297 37.4945 33.5878C38.1049 33.9459 38.8222 34.0766 39.5197 33.9569C40.2172 33.8373 40.85 33.4749 41.3061 32.9338C41.7622 32.3927 42.0124 31.7078 42.0124 31.0002C42.0124 30.2925 41.7622 29.6076 41.3061 29.0665C40.85 28.5254 40.2172 28.163 39.5197 28.0434C38.8222 27.9237 38.1049 28.0544 37.4945 28.4125C36.8841 28.7706 36.4199 29.3329 36.184 30.0002H29V27.0002H31C31.1646 27.0002 31.3266 26.9596 31.4718 26.8819C31.6169 26.8043 31.7407 26.6921 31.832 26.5552L33.535 24.0002H34.184C34.4199 24.6674 34.8841 25.2297 35.4945 25.5878C36.1049 25.9459 36.8222 26.0766 37.5197 25.9569C38.2172 25.8373 38.85 25.4749 39.3061 24.9338C39.7622 24.3927 40.0124 23.7078 40.0124 23.0002C40.0124 22.2925 39.7622 21.6076 39.3061 21.0665C38.85 20.5254 38.2172 20.163 37.5197 20.0434C36.8222 19.9237 36.1049 20.0544 35.4945 20.4125C34.8841 20.7706 34.4199 21.3329 34.184 22.0002H33C32.8354 22.0001 32.6734 22.0407 32.5282 22.1184C32.3831 22.196 32.2593 22.3082 32.168 22.4452L30.465 25.0002H29V15.0512ZM36 39.0002C36 38.8024 36.0586 38.609 36.1685 38.4446C36.2784 38.2801 36.4346 38.152 36.6173 38.0763C36.8 38.0006 37.0011 37.9808 37.1951 38.0194C37.3891 38.058 37.5673 38.1532 37.7071 38.293C37.847 38.4329 37.9422 38.6111 37.9808 38.8051C38.0194 38.999 37.9996 39.2001 37.9239 39.3828C37.8482 39.5656 37.72 39.7217 37.5556 39.8316C37.3911 39.9415 37.1978 40.0002 37 40.0002C36.7348 40.0002 36.4804 39.8948 36.2929 39.7073C36.1054 39.5197 36 39.2654 36 39.0002ZM38 31.0002C38 30.8024 38.0586 30.609 38.1685 30.4446C38.2784 30.2801 38.4346 30.152 38.6173 30.0763C38.8 30.0006 39.0011 29.9808 39.1951 30.0194C39.3891 30.058 39.5673 30.1532 39.7071 30.293C39.847 30.4329 39.9422 30.6111 39.9808 30.8051C40.0194 30.999 39.9996 31.2001 39.9239 31.3828C39.8482 31.5656 39.72 31.7217 39.5556 31.8316C39.3911 31.9415 39.1978 32.0002 39 32.0002C38.7348 32.0002 38.4804 31.8948 38.2929 31.7073C38.1054 31.5197 38 31.2654 38 31.0002ZM36 23.0002C36 22.8024 36.0586 22.609 36.1685 22.4446C36.2784 22.2801 36.4346 22.152 36.6173 22.0763C36.8 22.0006 37.0011 21.9808 37.1951 22.0194C37.3891 22.058 37.5673 22.1532 37.7071 22.293C37.847 22.4329 37.9422 22.6111 37.9808 22.8051C38.0194 22.999 37.9996 23.2001 37.9239 23.3828C37.8482 23.5656 37.72 23.7217 37.5556 23.8316C37.3911 23.9415 37.1978 24.0002 37 24.0002C36.7348 24.0002 36.4804 23.8948 36.2929 23.7073C36.1054 23.5197 36 23.2654 36 23.0002ZM32 4.00015V5.50015C32 5.73068 32.0796 5.95415 32.2253 6.13273C32.3711 6.31131 32.5741 6.43405 32.8 6.48015C35.8097 7.09142 38.6724 8.27999 41.23 9.98015C41.4224 10.1077 41.653 10.1647 41.8827 10.1415C42.1123 10.1184 42.3269 10.0165 42.49 9.85315L43.555 8.78815L49.212 14.4452L48.147 15.5102C47.9837 15.6732 47.8818 15.8878 47.8586 16.1175C47.8355 16.3471 47.8925 16.5777 48.02 16.7702C49.7202 19.3277 50.9087 22.1905 51.52 25.2002C51.5661 25.426 51.6888 25.629 51.8674 25.7748C52.046 25.9206 52.2695 26.0002 52.5 26.0002H54V34.0002H52.5C52.2695 34.0001 52.046 34.0797 51.8674 34.2255C51.6888 34.3713 51.5661 34.5743 51.52 34.8002C50.9087 37.8098 49.7202 40.6726 48.02 43.2302C47.8926 43.4224 47.8356 43.6527 47.8586 43.8821C47.8815 44.1115 47.9831 44.326 48.146 44.4892L49.212 45.5562L43.555 51.2122L42.49 50.1462C42.3268 49.983 42.1121 49.8813 41.8825 49.8583C41.6528 49.8353 41.4223 49.8925 41.23 50.0202C38.6725 51.7205 35.8097 52.9091 32.8 53.5202C32.5741 53.5663 32.3711 53.689 32.2253 53.8676C32.0796 54.0462 32 54.2696 32 54.5002V56.0002H28.92C28.9705 55.6692 28.9972 55.335 29 55.0002V48.9492C33.5968 48.7065 37.9253 46.7095 41.0933 43.3698C44.2613 40.0301 46.0273 35.6024 46.0273 30.9992C46.0273 26.3959 44.2613 21.9682 41.0933 18.6285C37.9253 15.2888 33.5968 13.2918 29 13.0492V6.00015C28.9983 5.3184 28.8799 4.64197 28.65 4.00015H32ZM5.933 25.3692C6.09907 25.3084 6.24605 25.2047 6.35897 25.0686C6.47189 24.9325 6.54669 24.7689 6.57576 24.5944C6.60484 24.42 6.58713 24.241 6.52446 24.0756C6.46179 23.9103 6.35638 23.7645 6.219 23.6532C5.30789 22.9154 4.63344 21.9263 4.27934 20.8087C3.92524 19.691 3.90707 18.494 4.22708 17.3662C4.54709 16.2383 5.19119 15.2292 6.07949 14.4641C6.96778 13.699 8.06117 13.2115 9.224 13.0622C9.36084 13.0451 9.49267 12.9999 9.61121 12.9295C9.72975 12.859 9.83244 12.7648 9.91283 12.6528C9.99322 12.5408 10.0496 12.4133 10.0783 12.2785C10.1071 12.1436 10.1077 12.0042 10.08 11.8692C10.0243 11.5829 9.99747 11.2918 10 11.0002C10.0016 9.67456 10.5289 8.40371 11.4662 7.46637C12.4036 6.52903 13.6744 6.00174 15 6.00015C15.8783 5.99627 16.7416 6.22799 17.5 6.67115C17.6494 6.75939 17.8191 6.80724 17.9926 6.81001C18.1661 6.81278 18.3373 6.77036 18.4894 6.68694C18.6415 6.60352 18.7693 6.48195 18.8603 6.33419C18.9512 6.18642 19.0021 6.01755 19.008 5.84415C19.0697 4.81299 19.5279 3.84569 20.2867 3.14476C21.0456 2.44384 22.0461 2.06366 23.0789 2.08382C24.1117 2.10398 25.0967 2.52292 25.8276 3.25292C26.5585 3.98292 26.9786 4.96737 27 6.00015V17.5402C25.9033 16.5493 24.478 16.0006 23 16.0002V18.0002C24.0609 18.0002 25.0783 18.4216 25.8284 19.1717C26.5786 19.9219 27 20.9393 27 22.0002V55.0002C26.9974 56.1789 26.5785 57.3189 25.8171 58.2188C25.0557 59.1187 24.0008 59.7207 22.8387 59.9184C21.6766 60.1161 20.482 59.8969 19.4659 59.2995C18.4497 58.702 17.6773 57.7648 17.285 56.6532C17.2116 56.4557 17.0792 56.2857 16.9059 56.166C16.7326 56.0463 16.5266 55.9828 16.316 55.9842C16.2661 55.9842 16.2163 55.9882 16.167 55.9962C16.1114 56.0005 16.0557 56.0018 16 56.0002C14.6361 56.008 13.3108 55.5476 12.2454 54.6961C11.18 53.8445 10.4389 52.6532 10.146 51.3212C10.1081 51.1524 10.0272 50.9963 9.91096 50.8682C9.79475 50.74 9.6473 50.6443 9.483 50.5902C8.25382 50.1846 7.14166 49.4863 6.24231 48.5554C5.34296 47.6246 4.68337 46.489 4.32037 45.2466C3.95737 44.0042 3.90183 42.6922 4.15855 41.4235C4.41526 40.1549 4.97653 38.9677 5.794 37.9642C5.89057 37.8463 5.95891 37.7079 5.99382 37.5595C6.02872 37.4112 6.02927 37.2568 5.9954 37.1082C5.96154 36.9597 5.89416 36.8208 5.79842 36.7022C5.70268 36.5837 5.58111 36.4886 5.443 36.4242C4.37423 35.9191 3.47848 35.1095 2.86817 34.0972C2.25786 33.0848 1.9602 31.9147 2.01254 30.7337C2.06488 29.5528 2.4649 28.4136 3.16239 27.4592C3.85987 26.5048 4.82374 25.7777 5.933 25.3692Z" fill="#C6DE41"/>
<path id="Vector_2" d="M15 36.0001C16.5908 36.0017 18.116 36.6344 19.2409 37.7592C20.3658 38.8841 20.9984 40.4093 21 42.0001H23C22.9976 39.8791 22.154 37.8457 20.6542 36.3459C19.1544 34.8461 17.121 34.0025 15 34.0001V36.0001ZM14 45.0001H12C12.0016 46.5909 12.6342 48.1161 13.7591 49.241C14.884 50.3659 16.4092 50.9985 18 51.0001V49.0001C16.9391 49.0001 15.9217 48.5787 15.1716 47.8285C14.4214 47.0784 14 46.061 14 45.0001ZM18 17.0001V15.0001C16.1441 15.0022 14.3649 15.7404 13.0526 17.0527C11.7403 18.365 11.0021 20.1443 11 22.0001H13C13.0016 20.6745 13.5289 19.4037 14.4662 18.4663C15.4036 17.529 16.6744 17.0017 18 17.0001Z" fill="#C6DE41"/>
</g>
</svg>
